<svg width="32" height="32" viewBox="0 0 32 32" fill="none" xmlns="http://www.w3.org/2000/svg">
<path d="M7.1879 4.34707C6.02329 4.99493 6.02329 5.01807 6 16.2399C6 27.809 6 27.809 7.42082 28.2948C8.44566 28.6419 23.1197 28.6419 24.1446 28.2948C25.5653 27.809 25.5653 27.7858 25.5653 16.3094C25.5653 5.13376 25.5421 4.94866 24.3774 4.34707C23.4691 3.88431 8.0264 3.88431 7.1879 4.34707ZM17.0637 8.83583C17.9022 9.34487 18.2284 9.96959 19.6491 13.6254C21.7454 18.9934 21.2329 22.117 17.9954 23.5978C14.0358 25.4258 9.98294 22.3484 10.542 17.929C10.6817 16.749 12.5684 11.381 13.3137 10.039C13.7563 9.25232 15.014 8.41934 15.7594 8.41934C16.0855 8.41934 16.6911 8.60445 17.0637 8.83583Z" fill="#F5E339"/>
<path d="M14.4317 9.87702C13.7796 10.5712 11.66 15.9623 11.3805 17.5819C10.9845 20.1734 11.8929 22.1864 13.8727 23.0425C15.1305 23.5978 16.9706 23.5052 18.1119 22.8342C19.8588 21.8163 20.5808 19.5024 19.9752 16.9572C19.5793 15.3607 17.5296 10.3166 17.0404 9.76134C16.4581 9.13662 15.0606 9.20602 14.4317 9.87702ZM16.365 14.9442C17.8091 15.5921 18.3914 18.5769 17.2967 19.6412C16.1321 20.7982 13.9659 20.1502 13.5699 18.5306C13.337 17.6745 13.8727 16.0549 14.6181 15.3144C15.3634 14.574 15.5032 14.5509 16.365 14.9442Z" fill="#F5E339"/>
</svg>
