<svg width="283.000000" height="50.000000" viewBox="0 0 283 50" fill="none" xmlns="http://www.w3.org/2000/svg" xmlns:xlink="http://www.w3.org/1999/xlink">
	<desc>
			Created with Pixso.
	</desc>
	<defs>
		<clipPath id="clip58_50">
			<rect id="Лого" rx="0.000000" width="282.000000" height="49.000000" transform="translate(0.500000 0.500000)" fill="white" fill-opacity="0"/>
		</clipPath>
	</defs>
	<rect id="Лого" rx="0.000000" width="282.000000" height="49.000000" transform="translate(0.500000 0.500000)" fill="#FFFFFF" fill-opacity="0"/>
	<g clip-path="url(#clip58_50)">
		<path id="Vector" d="M2.4 0.7C0.04 2.01 0.04 2.06 0 24.82C0 48.28 0 48.28 2.88 49.26C4.95 49.97 34.71 49.97 36.79 49.26C39.67 48.28 39.67 48.23 39.67 24.96C39.67 2.29 39.63 1.92 37.26 0.7C35.42 -0.24 4.1 -0.24 2.4 0.7ZM22.43 9.8C24.13 10.83 24.79 12.1 27.68 19.52C31.93 30.4 30.89 36.74 24.32 39.74C16.29 43.45 8.07 37.21 9.21 28.24C9.49 25.85 13.32 14.96 14.83 12.24C15.72 10.65 18.28 8.96 19.79 8.96C20.45 8.96 21.68 9.33 22.43 9.8Z" fill="#4F4F4F" fill-opacity="1.000000" fill-rule="nonzero"/>
		<path id="Vector" d="M17.09 11.91C15.77 13.32 11.47 24.25 10.91 27.54C10.1 32.79 11.95 36.88 15.96 38.61C18.51 39.74 22.24 39.55 24.56 38.19C28.1 36.13 29.56 31.43 28.34 26.27C27.53 23.03 23.38 12.81 22.38 11.68C21.2 10.41 18.37 10.55 17.09 11.91ZM21.02 22.19C23.94 23.5 25.12 29.56 22.9 31.72C20.54 34.06 16.15 32.75 15.35 29.46C14.87 27.73 15.96 24.44 17.47 22.94C18.98 21.44 19.27 21.39 21.02 22.19Z" fill="#4F4F4F" fill-opacity="1.000000" fill-rule="nonzero"/>
		<path id="Vector" d="M61.29 19.83L61.29 35.53L57.59 35.53L57.59 29.45C56.07 30.17 54.48 30.53 52.82 30.53C50.79 30.53 49.23 30.07 48.15 29.15C47.06 28.21 46.52 26.78 46.52 24.86L46.52 19.83L50.22 19.83L50.22 24.62C50.22 25.62 50.52 26.37 51.11 26.86C51.7 27.35 52.54 27.59 53.62 27.59C55.01 27.59 56.33 27.3 57.59 26.71L57.59 19.83L61.29 19.83ZM81.25 19.83L81.25 35.53L77.73 35.53L77.73 33.53C77.14 34.24 76.4 34.79 75.51 35.18C74.64 35.55 73.69 35.74 72.66 35.74C70.55 35.74 68.88 35.16 67.66 34C66.44 32.83 65.83 31.09 65.83 28.8L65.83 19.83L69.53 19.83L69.53 28.3C69.53 29.71 69.84 30.77 70.47 31.48C71.13 32.16 72.05 32.5 73.26 32.5C74.56 32.5 75.6 32.1 76.37 31.3C77.16 30.48 77.55 29.3 77.55 27.77L77.55 19.83L81.25 19.83ZM93.44 35.74C91.81 35.74 90.33 35.4 89.03 34.71C87.73 34.02 86.71 33.07 85.98 31.86C85.25 30.62 84.89 29.23 84.89 27.68C84.89 26.13 85.25 24.75 85.98 23.53C86.71 22.32 87.72 21.37 89 20.68C90.31 20 91.79 19.65 93.44 19.65C95 19.65 96.36 19.97 97.53 20.59C98.71 21.22 99.6 22.12 100.19 23.3L97.35 24.95C96.9 24.22 96.33 23.68 95.63 23.33C94.96 22.96 94.22 22.77 93.41 22.77C92.03 22.77 90.89 23.22 89.98 24.12C89.07 25 88.62 26.19 88.62 27.68C88.62 29.17 89.06 30.37 89.95 31.27C90.86 32.15 92.01 32.59 93.41 32.59C94.22 32.59 94.96 32.42 95.63 32.06C96.33 31.69 96.9 31.14 97.35 30.42L100.19 32.06C99.58 33.24 98.68 34.15 97.5 34.8C96.34 35.43 94.98 35.74 93.44 35.74ZM117.44 19.83L117.44 35.53L113.74 35.53L113.74 22.95L107.81 22.95L107.67 26.06C107.57 28.14 107.37 29.89 107.07 31.3C106.8 32.69 106.31 33.8 105.62 34.62C104.95 35.43 104.02 35.83 102.84 35.83C102.29 35.83 101.61 35.72 100.8 35.5L100.97 32.42C101.25 32.48 101.49 32.5 101.68 32.5C102.43 32.5 103 32.21 103.37 31.62C103.75 31.01 103.98 30.3 104.08 29.48C104.2 28.63 104.3 27.44 104.38 25.89L104.65 19.83L117.44 19.83ZM129.47 35.74C127.87 35.74 126.43 35.4 125.14 34.71C123.86 34.02 122.85 33.07 122.12 31.86C121.41 30.62 121.06 29.23 121.06 27.68C121.06 26.13 121.41 24.75 122.12 23.53C122.85 22.32 123.86 21.37 125.14 20.68C126.43 20 127.87 19.65 129.47 19.65C131.09 19.65 132.54 20 133.82 20.68C135.1 21.37 136.1 22.32 136.81 23.53C137.54 24.75 137.91 26.13 137.91 27.68C137.91 29.23 137.54 30.62 136.81 31.86C136.1 33.07 135.1 34.02 133.82 34.71C132.54 35.4 131.09 35.74 129.47 35.74ZM129.47 32.59C130.83 32.59 131.95 32.14 132.84 31.24C133.73 30.34 134.17 29.15 134.17 27.68C134.17 26.21 133.73 25.02 132.84 24.12C131.95 23.22 130.83 22.77 129.47 22.77C128.11 22.77 126.98 23.22 126.09 24.12C125.22 25.02 124.79 26.21 124.79 27.68C124.79 29.15 125.22 30.34 126.09 31.24C126.98 32.14 128.11 32.59 129.47 32.59ZM165.14 19.83L165.14 35.53L161.62 35.53L161.62 33.5C161 34.25 160.25 34.81 159.34 35.18C158.45 35.55 157.46 35.74 156.38 35.74C154.84 35.74 153.45 35.41 152.23 34.74C151.03 34.07 150.08 33.13 149.39 31.92C148.72 30.7 148.38 29.29 148.38 27.68C148.38 26.07 148.72 24.67 149.39 23.48C150.08 22.26 151.03 21.32 152.23 20.65C153.45 19.99 154.84 19.65 156.38 19.65C157.4 19.65 158.34 19.83 159.19 20.18C160.06 20.53 160.81 21.05 161.44 21.74L161.44 19.83L165.14 19.83ZM156.79 32.59C158.15 32.59 159.28 32.14 160.17 31.24C161.05 30.34 161.5 29.15 161.5 27.68C161.5 26.21 161.05 25.02 160.17 24.12C159.28 23.22 158.15 22.77 156.79 22.77C155.43 22.77 154.3 23.22 153.42 24.12C152.55 25.02 152.11 26.21 152.11 27.68C152.11 29.15 152.55 30.34 153.42 31.24C154.3 32.14 155.43 32.59 156.79 32.59ZM181.5 27.36C183.45 27.95 184.43 29.2 184.43 31.12C184.43 32.53 183.9 33.62 182.83 34.39C181.77 35.15 180.19 35.53 178.09 35.53L170.04 35.53L170.04 19.83L177.77 19.83C179.7 19.83 181.21 20.18 182.3 20.89C183.38 21.59 183.93 22.59 183.93 23.89C183.93 24.69 183.71 25.39 183.28 25.98C182.86 26.56 182.27 27.02 181.5 27.36ZM173.56 26.39L177.44 26.39C179.36 26.39 180.32 25.73 180.32 24.42C180.32 23.14 179.36 22.5 177.44 22.5L173.56 22.5L173.56 26.39ZM177.8 32.86C179.83 32.86 180.85 32.2 180.85 30.89C180.85 30.2 180.61 29.69 180.14 29.36C179.66 29 178.92 28.83 177.92 28.83L173.56 28.83L173.56 32.86L177.8 32.86ZM195.42 35.74C193.82 35.74 192.38 35.4 191.1 34.71C189.81 34.02 188.81 33.07 188.08 31.86C187.37 30.62 187.01 29.23 187.01 27.68C187.01 26.13 187.37 24.75 188.08 23.53C188.81 22.32 189.81 21.37 191.1 20.68C192.38 20 193.82 19.65 195.42 19.65C197.04 19.65 198.49 20 199.77 20.68C201.05 21.37 202.05 22.32 202.76 23.53C203.49 24.75 203.86 26.13 203.86 27.68C203.86 29.23 203.49 30.62 202.76 31.86C202.05 33.07 201.05 34.02 199.77 34.71C198.49 35.4 197.04 35.74 195.42 35.74ZM195.42 32.59C196.78 32.59 197.91 32.14 198.79 31.24C199.68 30.34 200.13 29.15 200.13 27.68C200.13 26.21 199.68 25.02 198.79 24.12C197.91 23.22 196.78 22.77 195.42 22.77C194.06 22.77 192.93 23.22 192.04 24.12C191.18 25.02 190.74 26.21 190.74 27.68C190.74 29.15 191.18 30.34 192.04 31.24C192.93 32.14 194.06 32.59 195.42 32.59ZM214.09 29.24L211.21 29.24L211.21 35.53L207.51 35.53L207.51 19.83L211.21 19.83L211.21 26.18L214.18 26.18L218.85 19.83L222.82 19.83L217.08 27.39L223.21 35.53L218.85 35.53L214.09 29.24ZM240.69 19.83L240.69 35.53L237.17 35.53L237.17 33.5C236.56 34.25 235.8 34.81 234.89 35.18C234 35.55 233.01 35.74 231.93 35.74C230.39 35.74 229.01 35.41 227.78 34.74C226.58 34.07 225.63 33.13 224.94 31.92C224.27 30.7 223.93 29.29 223.93 27.68C223.93 26.07 224.27 24.67 224.94 23.48C225.63 22.26 226.58 21.32 227.78 20.65C229.01 19.99 230.39 19.65 231.93 19.65C232.95 19.65 233.89 19.83 234.74 20.18C235.61 20.53 236.36 21.05 236.99 21.74L236.99 19.83L240.69 19.83ZM232.34 32.59C233.7 32.59 234.83 32.14 235.72 31.24C236.61 30.34 237.05 29.15 237.05 27.68C237.05 26.21 236.61 25.02 235.72 24.12C234.83 23.22 233.7 22.77 232.34 22.77C230.98 22.77 229.86 23.22 228.97 24.12C228.1 25.02 227.66 26.21 227.66 27.68C227.66 29.15 228.1 30.34 228.97 31.24C229.86 32.14 230.98 32.59 232.34 32.59ZM261.17 19.83L261.17 33.15C261.17 38.68 258.32 41.45 252.64 41.45C251.12 41.45 249.68 41.25 248.32 40.86C246.96 40.49 245.83 39.94 244.94 39.21L246.6 36.45C247.29 37.01 248.16 37.47 249.21 37.8C250.27 38.15 251.35 38.33 252.43 38.33C254.17 38.33 255.44 37.94 256.25 37.15C257.06 36.37 257.47 35.17 257.47 33.56L257.47 32.74C256.83 33.43 256.06 33.95 255.16 34.3C254.25 34.65 253.25 34.83 252.17 34.83C250.67 34.83 249.3 34.51 248.08 33.89C246.88 33.24 245.92 32.34 245.21 31.18C244.52 30.02 244.17 28.7 244.17 27.21C244.17 25.72 244.52 24.41 245.21 23.27C245.92 22.11 246.88 21.22 248.08 20.59C249.3 19.97 250.67 19.65 252.17 19.65C253.31 19.65 254.35 19.84 255.28 20.21C256.22 20.58 257.01 21.15 257.64 21.92L257.64 19.83L261.17 19.83ZM252.73 31.71C254.13 31.71 255.28 31.3 256.16 30.48C257.07 29.63 257.53 28.54 257.53 27.21C257.53 25.9 257.07 24.83 256.16 24C255.28 23.18 254.13 22.77 252.73 22.77C251.31 22.77 250.14 23.18 249.24 24C248.35 24.83 247.9 25.9 247.9 27.21C247.9 28.54 248.35 29.63 249.24 30.48C250.14 31.3 251.31 31.71 252.73 31.71ZM273.2 35.74C271.6 35.74 270.16 35.4 268.88 34.71C267.59 34.02 266.59 33.07 265.85 31.86C265.14 30.62 264.79 29.23 264.79 27.68C264.79 26.13 265.14 24.75 265.85 23.53C266.59 22.32 267.59 21.37 268.88 20.68C270.16 20 271.6 19.65 273.2 19.65C274.82 19.65 276.27 20 277.55 20.68C278.83 21.37 279.83 22.32 280.54 23.53C281.27 24.75 281.64 26.13 281.64 27.68C281.64 29.23 281.27 30.62 280.54 31.86C279.83 33.07 278.83 34.02 277.55 34.71C276.27 35.4 274.82 35.74 273.2 35.74ZM273.2 32.59C274.56 32.59 275.68 32.14 276.57 31.24C277.46 30.34 277.91 29.15 277.91 27.68C277.91 26.21 277.46 25.02 276.57 24.12C275.68 23.22 274.56 22.77 273.2 22.77C271.84 22.77 270.71 23.22 269.82 24.12C268.95 25.02 268.52 26.21 268.52 27.68C268.52 29.15 268.95 30.34 269.82 31.24C270.71 32.14 271.84 32.59 273.2 32.59Z" fill="#4F4F4F" fill-opacity="1.000000" fill-rule="nonzero"/>
	</g>
</svg>
