<svg width="283" height="50" viewBox="0 0 623 110" fill="none" xmlns="http://www.w3.org/2000/svg">
<path d="M5.29991 1.54848C0.10392 4.43898 0.10392 4.54221 0 54.6096C0 106.226 0 106.226 6.33912 108.394C10.9116 109.942 76.3811 109.942 80.9537 108.394C87.2926 106.226 87.2926 106.122 87.2926 54.9197C87.2926 5.05837 87.189 4.23252 81.9927 1.54848C77.9401 -0.516161 9.041 -0.516161 5.29991 1.54848ZM49.3619 21.5755C53.103 23.8466 54.5581 26.6339 60.897 42.9446C70.2496 66.8946 67.9633 80.8306 53.5187 87.4376C35.8523 95.5932 17.7703 81.8632 20.2644 62.1457C20.8879 56.8808 29.3054 32.9311 32.6308 26.9436C34.6053 23.4337 40.217 19.7173 43.5424 19.7173C44.9973 19.7173 47.6992 20.5432 49.3619 21.5755Z" fill="#F5E339"/>
<path d="M37.6189 26.2209C34.7092 29.3179 25.2525 53.371 24.0055 60.597C22.2388 72.1594 26.2917 81.1406 35.1249 84.9598C40.7366 87.4375 48.9462 87.0245 54.0383 84.0308C61.8323 79.489 65.0538 69.1657 62.3517 57.8098C60.5854 50.687 51.4403 28.1823 49.258 25.7048C46.66 22.9175 40.4248 23.2272 37.6189 26.2209ZM46.2443 48.8288C52.6873 51.7193 55.2855 65.0364 50.4011 69.7847C45.2051 74.9466 35.5406 72.0559 33.7739 64.8298C32.7347 61.01 35.1249 53.7839 38.4503 50.4805C41.7758 47.177 42.3993 47.0738 46.2443 48.8288Z" fill="#F5E339"/>
<path d="M134.855 43.6334V78.1863H126.713V64.7922C123.369 66.3883 119.874 67.1863 116.226 67.1863C111.753 67.1863 108.323 66.1726 105.934 64.1451C103.546 62.0745 102.352 58.9255 102.352 54.6981V43.6334H110.494V54.1804C110.494 56.3804 111.145 58.0196 112.448 59.0981C113.751 60.1765 115.596 60.7157 117.985 60.7157C121.024 60.7157 123.934 60.0686 126.713 58.7745V43.6334H134.855ZM178.763 43.6334V78.1863H171.012V73.7863C169.709 75.3392 168.081 76.5471 166.127 77.4098C164.216 78.2294 162.132 78.6392 159.874 78.6392C155.227 78.6392 151.558 77.3667 148.865 74.8216C146.173 72.2334 144.827 68.4157 144.827 63.3686V43.6334H152.969V62.2687C152.969 65.3745 153.664 67.7039 155.053 69.2569C156.486 70.7667 158.527 71.5216 161.176 71.5216C164.042 71.5216 166.322 70.6373 168.016 68.8686C169.753 67.0569 170.621 64.4686 170.621 61.1039V43.6334H178.763ZM205.587 78.6392C201.983 78.6392 198.748 77.8843 195.882 76.3745C193.016 74.8647 190.779 72.7726 189.173 70.0981C187.566 67.3804 186.763 64.3177 186.763 60.9098C186.763 57.502 187.566 54.4608 189.173 51.7863C190.779 49.1118 192.994 47.0196 195.817 45.5098C198.683 44 201.94 43.2451 205.587 43.2451C209.018 43.2451 212.014 43.9353 214.576 45.3157C217.182 46.6961 219.136 48.6804 220.438 51.2686L214.185 54.8922C213.187 53.2961 211.927 52.1098 210.407 51.3334C208.931 50.5137 207.302 50.1039 205.522 50.1039C202.482 50.1039 199.964 51.0961 197.966 53.0804C195.969 55.0216 194.97 57.6314 194.97 60.9098C194.97 64.1883 195.947 66.8196 197.901 68.8039C199.899 70.7451 202.439 71.7157 205.522 71.7157C207.302 71.7157 208.931 71.3275 210.407 70.551C211.927 69.7314 213.187 68.5236 214.185 66.9275L220.438 70.551C219.092 73.1392 217.116 75.1451 214.511 76.5686C211.949 77.949 208.974 78.6392 205.587 78.6392ZM258.37 43.6334V78.1863H250.228V50.4922H237.2L236.875 57.351C236.657 61.9235 236.223 65.7628 235.572 68.8686C234.964 71.9314 233.9 74.3686 232.38 76.1804C230.904 77.949 228.863 78.8334 226.257 78.8334C225.041 78.8334 223.543 78.5961 221.763 78.1216L222.154 71.3275C222.762 71.4569 223.283 71.5216 223.717 71.5216C225.367 71.5216 226.605 70.8745 227.43 69.5804C228.255 68.2432 228.776 66.6686 228.993 64.8569C229.254 63.002 229.471 60.3706 229.644 56.9628L230.231 43.6334H258.37ZM284.838 78.6392C281.32 78.6392 278.15 77.8843 275.328 76.3745C272.505 74.8647 270.29 72.7726 268.684 70.0981C267.12 67.3804 266.339 64.3177 266.339 60.9098C266.339 57.502 267.12 54.4608 268.684 51.7863C270.29 49.1118 272.505 47.0196 275.328 45.5098C278.15 44 281.32 43.2451 284.838 43.2451C288.398 43.2451 291.59 44 294.413 45.5098C297.235 47.0196 299.428 49.1118 300.992 51.7863C302.598 54.4608 303.402 57.502 303.402 60.9098C303.402 64.3177 302.598 67.3804 300.992 70.0981C299.428 72.7726 297.235 74.8647 294.413 76.3745C291.59 77.8843 288.398 78.6392 284.838 78.6392ZM284.838 71.7157C287.834 71.7157 290.309 70.7236 292.263 68.7392C294.217 66.7549 295.194 64.1451 295.194 60.9098C295.194 57.6745 294.217 55.0647 292.263 53.0804C290.309 51.0961 287.834 50.1039 284.838 50.1039C281.841 50.1039 279.366 51.0961 277.412 53.0804C275.501 55.0647 274.546 57.6745 274.546 60.9098C274.546 64.1451 275.501 66.7549 277.412 68.7392C279.366 70.7236 281.841 71.7157 284.838 71.7157ZM363.318 43.6334V78.1863H355.567V73.7216C354.221 75.3608 352.549 76.5902 350.551 77.4098C348.597 78.2294 346.426 78.6392 344.038 78.6392C340.651 78.6392 337.611 77.9059 334.919 76.4392C332.27 74.9726 330.185 72.902 328.665 70.2275C327.189 67.553 326.451 64.4471 326.451 60.9098C326.451 57.3726 327.189 54.2883 328.665 51.6569C330.185 48.9824 332.27 46.9118 334.919 45.4451C337.611 43.9785 340.651 43.2451 344.038 43.2451C346.296 43.2451 348.359 43.6334 350.226 44.4098C352.136 45.1863 353.787 46.3294 355.176 47.8392V43.6334H363.318ZM344.95 71.7157C347.946 71.7157 350.421 70.7236 352.375 68.7392C354.329 66.7549 355.306 64.1451 355.306 60.9098C355.306 57.6745 354.329 55.0647 352.375 53.0804C350.421 51.0961 347.946 50.1039 344.95 50.1039C341.953 50.1039 339.478 51.0961 337.524 53.0804C335.613 55.0647 334.658 57.6745 334.658 60.9098C334.658 64.1451 335.613 66.7549 337.524 68.7392C339.478 70.7236 341.953 71.7157 344.95 71.7157ZM399.309 60.1981C403.608 61.4922 405.758 64.253 405.758 68.4804C405.758 71.5863 404.585 73.9804 402.24 75.6628C399.895 77.3451 396.421 78.1863 391.818 78.1863H374.101V43.6334H391.102C395.358 43.6334 398.68 44.4098 401.068 45.9628C403.456 47.5157 404.65 49.7157 404.65 52.5628C404.65 54.3314 404.173 55.8628 403.217 57.1569C402.305 58.451 401.003 59.4647 399.309 60.1981ZM381.852 58.0628H390.385C394.598 58.0628 396.704 56.6177 396.704 53.7275C396.704 50.9236 394.598 49.5216 390.385 49.5216H381.852V58.0628ZM391.167 72.2981C395.64 72.2981 397.876 70.853 397.876 67.9628C397.876 66.453 397.355 65.3314 396.313 64.5981C395.271 63.8216 393.642 63.4334 391.428 63.4334H381.852V72.2981H391.167ZM429.933 78.6392C426.415 78.6392 423.245 77.8843 420.423 76.3745C417.6 74.8647 415.385 72.7726 413.779 70.0981C412.215 67.3804 411.434 64.3177 411.434 60.9098C411.434 57.502 412.215 54.4608 413.779 51.7863C415.385 49.1118 417.6 47.0196 420.423 45.5098C423.245 44 426.415 43.2451 429.933 43.2451C433.494 43.2451 436.685 44 439.508 45.5098C442.33 47.0196 444.523 49.1118 446.087 51.7863C447.693 54.4608 448.497 57.502 448.497 60.9098C448.497 64.3177 447.693 67.3804 446.087 70.0981C444.523 72.7726 442.33 74.8647 439.508 76.3745C436.685 77.8843 433.494 78.6392 429.933 78.6392ZM429.933 71.7157C432.929 71.7157 435.404 70.7236 437.358 68.7392C439.312 66.7549 440.289 64.1451 440.289 60.9098C440.289 57.6745 439.312 55.0647 437.358 53.0804C435.404 51.0961 432.929 50.1039 429.933 50.1039C426.936 50.1039 424.461 51.0961 422.507 53.0804C420.596 55.0647 419.641 57.6745 419.641 60.9098C419.641 64.1451 420.596 66.7549 422.507 68.7392C424.461 70.7236 426.936 71.7157 429.933 71.7157ZM471 64.3392H464.682V78.1863H456.54V43.6334H464.682V57.6098H471.196L481.487 43.6334H490.216L477.579 60.2628L491.063 78.1863H481.487L471 64.3392ZM529.532 43.6334V78.1863H521.781V73.7216C520.434 75.3608 518.763 76.5902 516.765 77.4098C514.811 78.2294 512.64 78.6392 510.251 78.6392C506.864 78.6392 503.825 77.9059 501.132 76.4392C498.483 74.9726 496.399 72.902 494.879 70.2275C493.403 67.553 492.664 64.4471 492.664 60.9098C492.664 57.3726 493.403 54.2883 494.879 51.6569C496.399 48.9824 498.483 46.9118 501.132 45.4451C503.825 43.9785 506.864 43.2451 510.251 43.2451C512.509 43.2451 514.572 43.6334 516.439 44.4098C518.35 45.1863 520 46.3294 521.39 47.8392V43.6334H529.532ZM511.163 71.7157C514.16 71.7157 516.635 70.7236 518.589 68.7392C520.543 66.7549 521.52 64.1451 521.52 60.9098C521.52 57.6745 520.543 55.0647 518.589 53.0804C516.635 51.0961 514.16 50.1039 511.163 50.1039C508.167 50.1039 505.692 51.0961 503.738 53.0804C501.827 55.0647 500.872 57.6745 500.872 60.9098C500.872 64.1451 501.827 66.7549 503.738 68.7392C505.692 70.7236 508.167 71.7157 511.163 71.7157ZM574.578 43.6334V72.9451C574.578 85.1098 568.325 91.1922 555.818 91.1922C552.475 91.1922 549.305 90.7608 546.308 89.8981C543.312 89.0785 540.836 87.8706 538.882 86.2745L542.529 80.1922C544.05 81.4432 545.961 82.4353 548.263 83.1687C550.607 83.9451 552.974 84.3334 555.362 84.3334C559.184 84.3334 561.985 83.4706 563.765 81.7451C565.546 80.0196 566.436 77.3883 566.436 73.851V72.0392C565.046 73.549 563.353 74.6922 561.355 75.4687C559.358 76.2451 557.165 76.6334 554.776 76.6334C551.476 76.6334 548.48 75.9432 545.787 74.5628C543.138 73.1392 541.031 71.1549 539.468 68.6098C537.948 66.0647 537.188 63.153 537.188 59.8745C537.188 56.5961 537.948 53.7059 539.468 51.2039C541.031 48.6588 543.138 46.6961 545.787 45.3157C548.48 43.9353 551.476 43.2451 554.776 43.2451C557.295 43.2451 559.575 43.6549 561.616 44.4745C563.7 45.2941 565.437 46.5451 566.827 48.2275V43.6334H574.578ZM556.014 69.7745C559.097 69.7745 561.616 68.8686 563.57 67.0569C565.567 65.202 566.566 62.8079 566.566 59.8745C566.566 56.9843 565.567 54.6334 563.57 52.8216C561.616 51.0098 559.097 50.1039 556.014 50.1039C552.887 50.1039 550.325 51.0098 548.328 52.8216C546.374 54.6334 545.397 56.9843 545.397 59.8745C545.397 62.8079 546.374 65.202 548.328 67.0569C550.325 68.8686 552.887 69.7745 556.014 69.7745ZM601.045 78.6392C597.528 78.6392 594.358 77.8843 591.535 76.3745C588.713 74.8647 586.498 72.7726 584.891 70.0981C583.328 67.3804 582.546 64.3177 582.546 60.9098C582.546 57.502 583.328 54.4608 584.891 51.7863C586.498 49.1118 588.713 47.0196 591.535 45.5098C594.358 44 597.528 43.2451 601.045 43.2451C604.606 43.2451 607.798 44 610.62 45.5098C613.443 47.0196 615.636 49.1118 617.199 51.7863C618.806 54.4608 619.609 57.502 619.609 60.9098C619.609 64.3177 618.806 67.3804 617.199 70.0981C615.636 72.7726 613.443 74.8647 610.62 76.3745C607.798 77.8843 604.606 78.6392 601.045 78.6392ZM601.045 71.7157C604.041 71.7157 606.517 70.7236 608.471 68.7392C610.425 66.7549 611.402 64.1451 611.402 60.9098C611.402 57.6745 610.425 55.0647 608.471 53.0804C606.517 51.0961 604.041 50.1039 601.045 50.1039C598.049 50.1039 595.574 51.0961 593.62 53.0804C591.709 55.0647 590.753 57.6745 590.753 60.9098C590.753 64.1451 591.709 66.7549 593.62 68.7392C595.574 70.7236 598.049 71.7157 601.045 71.7157Z" fill="#F5E339"/>
</svg>
